<mxfile host="app.diagrams.net" modified="2023-08-15T07:27:39.539Z" agent="Mozilla/5.0 (X11; Linux x86_64) AppleWebKit/537.36 (KHTML, like Gecko) Chrome/115.0.0.0 Safari/537.36" etag="Iqye3bVlCAkpxQG-JJYu" version="21.6.8" type="device" pages="4">
  <diagram name="Page-1" id="I1xzAtU0htGSn74eNWv8">
    <mxGraphModel dx="880" dy="486" grid="1" gridSize="10" guides="1" tooltips="1" connect="1" arrows="1" fold="1" page="1" pageScale="1" pageWidth="1100" pageHeight="850" math="0" shadow="0">
      <root>
        <mxCell id="0" />
        <mxCell id="1" parent="0" />
        <mxCell id="rD15RdYFUB2_B6rCzAqm-1" value="3" style="rounded=0;whiteSpace=wrap;html=1;fontFamily=Ubuntu;fontSource=https%3A%2F%2Ffonts.googleapis.com%2Fcss%3Ffamily%3DUbuntu;fontSize=17;fillColor=#d5e8d4;strokeColor=#82b366;" vertex="1" parent="1">
          <mxGeometry x="160" y="120" width="40" height="40" as="geometry" />
        </mxCell>
        <mxCell id="rD15RdYFUB2_B6rCzAqm-2" value="-2" style="rounded=0;whiteSpace=wrap;html=1;fontFamily=Ubuntu;fontSource=https%3A%2F%2Ffonts.googleapis.com%2Fcss%3Ffamily%3DUbuntu;fontSize=17;" vertex="1" parent="1">
          <mxGeometry x="200" y="120" width="40" height="40" as="geometry" />
        </mxCell>
        <mxCell id="rD15RdYFUB2_B6rCzAqm-3" value="-5" style="rounded=0;whiteSpace=wrap;html=1;fontFamily=Ubuntu;fontSource=https%3A%2F%2Ffonts.googleapis.com%2Fcss%3Ffamily%3DUbuntu;fontSize=17;" vertex="1" parent="1">
          <mxGeometry x="240" y="120" width="40" height="40" as="geometry" />
        </mxCell>
        <mxCell id="rD15RdYFUB2_B6rCzAqm-4" value="7" style="rounded=0;whiteSpace=wrap;html=1;fontFamily=Ubuntu;fontSource=https%3A%2F%2Ffonts.googleapis.com%2Fcss%3Ffamily%3DUbuntu;fontSize=17;" vertex="1" parent="1">
          <mxGeometry x="280" y="120" width="40" height="40" as="geometry" />
        </mxCell>
        <mxCell id="rD15RdYFUB2_B6rCzAqm-5" value="-5" style="rounded=0;whiteSpace=wrap;html=1;fontFamily=Ubuntu;fontSource=https%3A%2F%2Ffonts.googleapis.com%2Fcss%3Ffamily%3DUbuntu;fontSize=17;" vertex="1" parent="1">
          <mxGeometry x="320" y="120" width="40" height="40" as="geometry" />
        </mxCell>
        <mxCell id="rD15RdYFUB2_B6rCzAqm-6" value="4" style="rounded=0;whiteSpace=wrap;html=1;fontFamily=Ubuntu;fontSource=https%3A%2F%2Ffonts.googleapis.com%2Fcss%3Ffamily%3DUbuntu;fontSize=17;" vertex="1" parent="1">
          <mxGeometry x="360" y="120" width="40" height="40" as="geometry" />
        </mxCell>
        <mxCell id="rD15RdYFUB2_B6rCzAqm-7" value="2" style="rounded=0;whiteSpace=wrap;html=1;fontFamily=Ubuntu;fontSource=https%3A%2F%2Ffonts.googleapis.com%2Fcss%3Ffamily%3DUbuntu;fontSize=17;" vertex="1" parent="1">
          <mxGeometry x="400" y="120" width="40" height="40" as="geometry" />
        </mxCell>
        <mxCell id="rD15RdYFUB2_B6rCzAqm-8" value="4" style="rounded=0;whiteSpace=wrap;html=1;fontFamily=Ubuntu;fontSource=https%3A%2F%2Ffonts.googleapis.com%2Fcss%3Ffamily%3DUbuntu;fontSize=17;" vertex="1" parent="1">
          <mxGeometry x="440" y="120" width="40" height="40" as="geometry" />
        </mxCell>
        <mxCell id="rD15RdYFUB2_B6rCzAqm-9" value="6" style="rounded=0;whiteSpace=wrap;html=1;fontFamily=Ubuntu;fontSource=https%3A%2F%2Ffonts.googleapis.com%2Fcss%3Ffamily%3DUbuntu;fontSize=17;" vertex="1" parent="1">
          <mxGeometry x="480" y="120" width="40" height="40" as="geometry" />
        </mxCell>
        <mxCell id="rD15RdYFUB2_B6rCzAqm-10" value="-3" style="rounded=0;whiteSpace=wrap;html=1;fontFamily=Ubuntu;fontSource=https%3A%2F%2Ffonts.googleapis.com%2Fcss%3Ffamily%3DUbuntu;fontSize=17;" vertex="1" parent="1">
          <mxGeometry x="520" y="120" width="40" height="40" as="geometry" />
        </mxCell>
        <mxCell id="rD15RdYFUB2_B6rCzAqm-11" value="" style="endArrow=none;dashed=1;html=1;rounded=0;" edge="1" parent="1">
          <mxGeometry width="50" height="50" relative="1" as="geometry">
            <mxPoint x="200" y="480" as="sourcePoint" />
            <mxPoint x="200" y="90" as="targetPoint" />
          </mxGeometry>
        </mxCell>
        <mxCell id="rD15RdYFUB2_B6rCzAqm-12" value="SORTED" style="text;html=1;strokeColor=none;fillColor=none;align=center;verticalAlign=middle;whiteSpace=wrap;rounded=0;fontFamily=Ubuntu;fontSource=https%3A%2F%2Ffonts.googleapis.com%2Fcss%3Ffamily%3DUbuntu;fontSize=16;" vertex="1" parent="1">
          <mxGeometry x="120" y="60" width="60" height="30" as="geometry" />
        </mxCell>
        <mxCell id="rD15RdYFUB2_B6rCzAqm-13" value="UNSORTED" style="text;html=1;strokeColor=none;fillColor=none;align=center;verticalAlign=middle;whiteSpace=wrap;rounded=0;fontFamily=Ubuntu;fontSource=https%3A%2F%2Ffonts.googleapis.com%2Fcss%3Ffamily%3DUbuntu;fontSize=16;" vertex="1" parent="1">
          <mxGeometry x="210" y="60" width="90" height="30" as="geometry" />
        </mxCell>
        <mxCell id="rD15RdYFUB2_B6rCzAqm-14" value="number = -2" style="text;html=1;strokeColor=none;fillColor=none;align=center;verticalAlign=middle;whiteSpace=wrap;rounded=0;fontFamily=Ubuntu;fontSource=https%3A%2F%2Ffonts.googleapis.com%2Fcss%3Ffamily%3DUbuntu;fontSize=16;" vertex="1" parent="1">
          <mxGeometry x="200" y="260" width="110" height="30" as="geometry" />
        </mxCell>
        <mxCell id="rD15RdYFUB2_B6rCzAqm-15" value="" style="shape=stencil(nVjZkhoxDPwaXlW+bT1vNv+xVcsGKgS2WHL9fTQhHpCY6YG8cahtWVK3ZK/i08fm5X29Cu7jdDx8Xf/cvp42q/hpFcJ2v1kftyf5tIrPq/j0djiuvxwP3/ev5+/vL4Pl8Onb4cewwq8zzmfKbkAF9/v8iyNOf3/4fLbfbfdX9iFTy8peFqjz9jFQDsq+UfbAvlHV/njfV5gEpEStaUCiWuYB2ZOLGtDIgyPkQo0VIHgqbR5QAgXtkgQpMgBU8jqogcmBHaq3UZU4/4vbNEDSVjSgUAKHrkysd0iOIiiMFvvfIyCRB4lrpcdkBFRiUBpNYqJdklSWOA9gb2s7Z/KgNDhS0S7lRgntkKlql4qnBBLHlZKOUkkUQOK49VIbAYUqcMk7R06fWqoloEM0G6aaerVMAxIVXa619jjMZY71Ds3BUzfhi1EN0RHgUhuPOAIyLCap76wJ0RpFRLlmCSHltcAgbwAVHlp2SDqskhkHZKMKhdkCGO0QKelDM0NxLWyrjxnuUKQbGHG91OM0wk/41AAgVyvHAkDKNJD+JkwFAWL/+ypz0CWJq0n12DOmAYlysgAHEjH0IJOITAFUXxkJNgIS5KjokOlBAkDaV5rl6AKghu7xnS5J08r8yKFFhjg+ElbhqMsWgBInHG03pEalIS6ZWWCh+ER7s4kSLm9Rd6P3A4GA9EkD4Qc5KsPFQzKQecInJDTCUa42TAsMMsPAgljmm/lkQY7/B2D1W5ZAk2gkNmEV1uIoGQa12lvxnFZWAxDKAYCosWnt0llRHx2mEc1R4VRAfTRZ2ZA25hc6tZk2Qifh9CzgOiPHkUkYhISJbwAJDpaiAtVrgEQJZFpUwOtaygudOvdh5Gp0RXcOae1eu5QDnHWro6IBCd/M5JJSdJSGqxdSDcm02cGTRx3F2RYU61JnN5fFGLuTc3e/pPkQRflAR0mFigaEAgd8OWLU40wIkEAx22HDM9xBroZFE8hjAoVoKeoDLD65D0ej3sRANGQ506crlGLXVxtD1EtxxjwkYx6guWk9vjev+1aXBIKzjq8jV88lwDyQK8Y8g8hEOxa6TqHpcrZ5EgIhUenN5WKOuj73MN9n7kdy3+eNVI2Z410/zrS9yEl9IJaPvmwt28uHyzPa23a3O7/CXf9vn93kp/OTXXz+Aw==);lineShape=1;" vertex="1" parent="1">
          <mxGeometry x="218.1568542554669" y="161.1700513133393" width="22.41062627290694" height="102.89660658375567" as="geometry" />
        </mxCell>
        <mxCell id="rD15RdYFUB2_B6rCzAqm-16" value="" style="shape=stencil(lVfLbttADPwaXQnucp/nNP2PAHFqo24cOO7r70tVWNukrQlyk2WORA6Hs9QkD+/bp7fNFPn9dDx83/zePZ+2k3yZYty9bjfH3UmvJnmc5OHlcNx8Ox5+vj4vv9+e5sj56sfh1/yEPwsuROplRkX+u9xJFPj/ja9L/H73eh3fqQUTHwq1vA6IjVI0AEmU+zpA/072DZmJ4zogMaVmACVTAimlmxpmQFgH5H6TklADNZRC2QJSpCjrgKrPYwNQ3hj0oQmx2D4oSwkAMoltdKFUQXyjaPuWSNp6fA8krmRYQE8+XhME+fRC3TLUSEC9vVGz+avUC2hyV1VYgkKlCnSnAJdRFAo4JTdrcw2Io0rBzY7WgEg6j9YZkKnirhXbBamjL2uyyDcAZBiquxJ9SgEJT7zwJFAFs9MCZTv/UVNCAKZWLSBAD9M3BCcNHZ4CANEbRtAkEUvJ01rHjfvxddjJZdqQIXWmaDkS6oCiLmO4Ls9HPdDpDD7/gPJRd6meIEbK7l5GIVMHPQvMw3+uuiyohj4M7gwoVNA8V28x8sEbFCCfAagsohVeVuKAjqqaqDUAPVkQTXpSOZZaGVXdPwuLnwXtfQQWk5K3mKvW3N8AhJIVn/paAa/QPnG2RcThCfcB7D2mJKym7D1Gl5KGOudXDF1rGhjoSGzjVawdOAyPdM+kdrjCsBfS7GBgQG+GJwg8nnl4+tU6ghYepmrj1dAQ/1RtuQme5TK85MwmXgip2Kcru2AEip8xJQuIrQ0nvApHh75fEhhqP9yeftBIP73wfxivF5evi5fdfr98nFz/779G9NbyJSOP/wA=);lineShape=1;" vertex="1" parent="1">
          <mxGeometry x="218.79489401130445" y="243.80409118075409" width="29.46511019953391" height="16.85044185188781" as="geometry" />
        </mxCell>
        <mxCell id="rD15RdYFUB2_B6rCzAqm-17" value="3" style="rounded=0;whiteSpace=wrap;html=1;fontFamily=Ubuntu;fontSource=https%3A%2F%2Ffonts.googleapis.com%2Fcss%3Ffamily%3DUbuntu;fontSize=17;fillColor=#d5e8d4;strokeColor=#82b366;" vertex="1" parent="1">
          <mxGeometry x="160" y="320" width="40" height="40" as="geometry" />
        </mxCell>
        <mxCell id="rD15RdYFUB2_B6rCzAqm-18" value="3" style="rounded=0;whiteSpace=wrap;html=1;fontFamily=Ubuntu;fontSource=https%3A%2F%2Ffonts.googleapis.com%2Fcss%3Ffamily%3DUbuntu;fontSize=17;" vertex="1" parent="1">
          <mxGeometry x="200" y="320" width="40" height="40" as="geometry" />
        </mxCell>
        <mxCell id="rD15RdYFUB2_B6rCzAqm-19" value="-5" style="rounded=0;whiteSpace=wrap;html=1;fontFamily=Ubuntu;fontSource=https%3A%2F%2Ffonts.googleapis.com%2Fcss%3Ffamily%3DUbuntu;fontSize=17;" vertex="1" parent="1">
          <mxGeometry x="240" y="320" width="40" height="40" as="geometry" />
        </mxCell>
        <mxCell id="rD15RdYFUB2_B6rCzAqm-20" value="7" style="rounded=0;whiteSpace=wrap;html=1;fontFamily=Ubuntu;fontSource=https%3A%2F%2Ffonts.googleapis.com%2Fcss%3Ffamily%3DUbuntu;fontSize=17;" vertex="1" parent="1">
          <mxGeometry x="280" y="320" width="40" height="40" as="geometry" />
        </mxCell>
        <mxCell id="rD15RdYFUB2_B6rCzAqm-21" value="-5" style="rounded=0;whiteSpace=wrap;html=1;fontFamily=Ubuntu;fontSource=https%3A%2F%2Ffonts.googleapis.com%2Fcss%3Ffamily%3DUbuntu;fontSize=17;" vertex="1" parent="1">
          <mxGeometry x="320" y="320" width="40" height="40" as="geometry" />
        </mxCell>
        <mxCell id="rD15RdYFUB2_B6rCzAqm-22" value="4" style="rounded=0;whiteSpace=wrap;html=1;fontFamily=Ubuntu;fontSource=https%3A%2F%2Ffonts.googleapis.com%2Fcss%3Ffamily%3DUbuntu;fontSize=17;" vertex="1" parent="1">
          <mxGeometry x="360" y="320" width="40" height="40" as="geometry" />
        </mxCell>
        <mxCell id="rD15RdYFUB2_B6rCzAqm-23" value="2" style="rounded=0;whiteSpace=wrap;html=1;fontFamily=Ubuntu;fontSource=https%3A%2F%2Ffonts.googleapis.com%2Fcss%3Ffamily%3DUbuntu;fontSize=17;" vertex="1" parent="1">
          <mxGeometry x="400" y="320" width="40" height="40" as="geometry" />
        </mxCell>
        <mxCell id="rD15RdYFUB2_B6rCzAqm-24" value="4" style="rounded=0;whiteSpace=wrap;html=1;fontFamily=Ubuntu;fontSource=https%3A%2F%2Ffonts.googleapis.com%2Fcss%3Ffamily%3DUbuntu;fontSize=17;" vertex="1" parent="1">
          <mxGeometry x="440" y="320" width="40" height="40" as="geometry" />
        </mxCell>
        <mxCell id="rD15RdYFUB2_B6rCzAqm-25" value="6" style="rounded=0;whiteSpace=wrap;html=1;fontFamily=Ubuntu;fontSource=https%3A%2F%2Ffonts.googleapis.com%2Fcss%3Ffamily%3DUbuntu;fontSize=17;" vertex="1" parent="1">
          <mxGeometry x="480" y="320" width="40" height="40" as="geometry" />
        </mxCell>
        <mxCell id="rD15RdYFUB2_B6rCzAqm-26" value="-3" style="rounded=0;whiteSpace=wrap;html=1;fontFamily=Ubuntu;fontSource=https%3A%2F%2Ffonts.googleapis.com%2Fcss%3Ffamily%3DUbuntu;fontSize=17;" vertex="1" parent="1">
          <mxGeometry x="520" y="320" width="40" height="40" as="geometry" />
        </mxCell>
        <mxCell id="rD15RdYFUB2_B6rCzAqm-27" value="" style="shape=stencil(rVfLbhsxDPwaXwmJ1IvnNP2PAHEao2kcOOnr78vFVluLG01RoLe1zJEocjikDnLz+nj3cjxweH27nD8fv5/u3x4P8uHAfHp+PF5Ob/Z1kNuD3DycL8dPl/PX5/v198vdYrl8fTl/W3b4seK0EuuC4vBzXYmB6rrycQU8nZ6vAZG4joBEheeAlojLCFDSNAfUSlkGAGfKCBBIR4AwxTYHFKGQB0AKJOCEnKg6QKNa5oBUekw6INsKOEEaaRwA5mSpAMCURpeKUslzABeSMUo1UwMncKQYBkCL1OIcYEQI4x00UQNRikw63kELKSBfjJ6t2qiAE5R4vIIq1QCYQTraxxAoAEDyebYDMqgG3tk3EmAfKaiPENo/UFSfAgE5s9uNpLD6/l1ME3vnfzPWIU5QG/1pFdoL1ZFCrVAE/mSfsJY7zd9XI2Le2YP8mhom8Q4FlDDu+13dOIHKj9KF4SqkCbmUdkUQIakXgKuC1Gk1c0maZx1kafRpMFpHoC3qFdvKBgWpdi28skdCYUkt3r4iNSVO3v+GQupblPVR1HGMRU4ZMwVoH1w8mSosS3H+hx6B/2Kf+0yw9Y5NWWdlU8cDKsMLx+IzXDIktaXMFWZWioCjYjlwLZkhh6T21rI1/QKbTTKPxxNEe0d8P6riy8acbKCHF/ZyvTQU4JLNBG10KeYehtnwFcbEWSoDqJy2K7VEGXXk2Au929uVAbON+KU5ewYhWqSNnT1q4FaI4vdHRDUl3PmT0f6Vmgtob0Hv22/Cs6WYGHBomTdGaZGuNTN7HeOzzbaTSt5pkXVklADtk/FW+nB6192M1jpnZwHy2t5vNEvAP75w/g6wjz8PqofT09P6Hrv+3z/AbGl9vMntLw==);lineShape=1;" vertex="1" parent="1">
          <mxGeometry x="172.00091217603335" y="276.7902004717714" width="39.209177405276705" height="38.03888539495665" as="geometry" />
        </mxCell>
        <mxCell id="rD15RdYFUB2_B6rCzAqm-28" value="" style="shape=stencil(lVfLbhsxDPyavRISJYrSOU3/I0Cc2qhrB477+vvSXWxi0t4peluvORIfMyPtVB7etk+vm4nT2/l0/Lr5uXs+b6fyaWLeHbab0+5sT1N5nMrDy/G0+XI6fj88z79fny6Rl6dvxx+XFX7NuCxU6wXF6ff8plNqf198nuP3u8NVPCdK4uK5UskAYBt4QBVqCgCdms+oZapjHVAG5QCo1EFKtdNQDyhU+jrAEujFAWRQAV3SSux3EKEEiu49jkEyZZDSyKQ3gMIAYD0JACtaAECpZg9QWMOwOQzfVoaAnIxMySN0yXJti1C1FlLUph7Zp4MYVd2Im9eD7ZAAwLroq+5tIfB9QKIcdlBYg63XRwQkkJJlPIKmTaOIfZman0O3JBHA/mbfVqMXaKt1vQXJmQgBwHbgHjWagaithtAlo+sAgrj05EYQowCALpq/kpwAF7BJN4kAZK7GpR4ATBXR26gWjAmbq+lBg+Ks0cBcTXEhpSbUsQuMoDibDDImI4IfnCoJArzb0DtbGbqxWV8N9BbIVjPXaAJKDZDvvwHaiT35bIkMNG1dL14PQygDtkoi9SnZZArYoWjU9JU/3z+pK0nIqcJR5xoVZKoVRCbiQG/sfLJweYm3opAXJ+o+H87Ljivx7ImUdXGdlfhwvn10YG39HkYAz0OzE39Em3IArzmePBWaRYn2xfAUkXhfSPBYMzctIRyNdsTRJny3yPEykhabuR/PNHIoFh37t1QWeDzdvWej/P95L7eHj0v9y26/n78Jrv+PHwH2av6AKI9/AA==);lineShape=1;" vertex="1" parent="1">
          <mxGeometry x="163.79585408651292" y="302.8066826706836" width="27.041313694565588" height="14.971761027845787" as="geometry" />
        </mxCell>
        <mxCell id="rD15RdYFUB2_B6rCzAqm-29" value="-2" style="rounded=0;whiteSpace=wrap;html=1;fontFamily=Ubuntu;fontSource=https%3A%2F%2Ffonts.googleapis.com%2Fcss%3Ffamily%3DUbuntu;fontSize=17;fillColor=#d5e8d4;strokeColor=#82b366;" vertex="1" parent="1">
          <mxGeometry x="120" y="405" width="40" height="40" as="geometry" />
        </mxCell>
        <mxCell id="rD15RdYFUB2_B6rCzAqm-30" value="3" style="rounded=0;whiteSpace=wrap;html=1;fontFamily=Ubuntu;fontSource=https%3A%2F%2Ffonts.googleapis.com%2Fcss%3Ffamily%3DUbuntu;fontSize=17;fillColor=#d5e8d4;strokeColor=#82b366;" vertex="1" parent="1">
          <mxGeometry x="160" y="405" width="40" height="40" as="geometry" />
        </mxCell>
        <mxCell id="rD15RdYFUB2_B6rCzAqm-31" value="-5" style="rounded=0;whiteSpace=wrap;html=1;fontFamily=Ubuntu;fontSource=https%3A%2F%2Ffonts.googleapis.com%2Fcss%3Ffamily%3DUbuntu;fontSize=17;" vertex="1" parent="1">
          <mxGeometry x="200" y="405" width="40" height="40" as="geometry" />
        </mxCell>
        <mxCell id="rD15RdYFUB2_B6rCzAqm-32" value="7" style="rounded=0;whiteSpace=wrap;html=1;fontFamily=Ubuntu;fontSource=https%3A%2F%2Ffonts.googleapis.com%2Fcss%3Ffamily%3DUbuntu;fontSize=17;" vertex="1" parent="1">
          <mxGeometry x="240" y="405" width="40" height="40" as="geometry" />
        </mxCell>
        <mxCell id="rD15RdYFUB2_B6rCzAqm-33" value="-5" style="rounded=0;whiteSpace=wrap;html=1;fontFamily=Ubuntu;fontSource=https%3A%2F%2Ffonts.googleapis.com%2Fcss%3Ffamily%3DUbuntu;fontSize=17;" vertex="1" parent="1">
          <mxGeometry x="280" y="405" width="40" height="40" as="geometry" />
        </mxCell>
        <mxCell id="rD15RdYFUB2_B6rCzAqm-34" value="4" style="rounded=0;whiteSpace=wrap;html=1;fontFamily=Ubuntu;fontSource=https%3A%2F%2Ffonts.googleapis.com%2Fcss%3Ffamily%3DUbuntu;fontSize=17;" vertex="1" parent="1">
          <mxGeometry x="320" y="405" width="40" height="40" as="geometry" />
        </mxCell>
        <mxCell id="rD15RdYFUB2_B6rCzAqm-35" value="2" style="rounded=0;whiteSpace=wrap;html=1;fontFamily=Ubuntu;fontSource=https%3A%2F%2Ffonts.googleapis.com%2Fcss%3Ffamily%3DUbuntu;fontSize=17;" vertex="1" parent="1">
          <mxGeometry x="360" y="405" width="40" height="40" as="geometry" />
        </mxCell>
        <mxCell id="rD15RdYFUB2_B6rCzAqm-36" value="4" style="rounded=0;whiteSpace=wrap;html=1;fontFamily=Ubuntu;fontSource=https%3A%2F%2Ffonts.googleapis.com%2Fcss%3Ffamily%3DUbuntu;fontSize=17;" vertex="1" parent="1">
          <mxGeometry x="400" y="405" width="40" height="40" as="geometry" />
        </mxCell>
        <mxCell id="rD15RdYFUB2_B6rCzAqm-37" value="6" style="rounded=0;whiteSpace=wrap;html=1;fontFamily=Ubuntu;fontSource=https%3A%2F%2Ffonts.googleapis.com%2Fcss%3Ffamily%3DUbuntu;fontSize=17;" vertex="1" parent="1">
          <mxGeometry x="440" y="405" width="40" height="40" as="geometry" />
        </mxCell>
        <mxCell id="rD15RdYFUB2_B6rCzAqm-38" value="-3" style="rounded=0;whiteSpace=wrap;html=1;fontFamily=Ubuntu;fontSource=https%3A%2F%2Ffonts.googleapis.com%2Fcss%3Ffamily%3DUbuntu;fontSize=17;" vertex="1" parent="1">
          <mxGeometry x="480" y="405" width="40" height="40" as="geometry" />
        </mxCell>
      </root>
    </mxGraphModel>
  </diagram>
  <diagram name="Copy of Page-1" id="ENoMaLqTYF4AsyIyVuG8">
    <mxGraphModel dx="880" dy="486" grid="1" gridSize="10" guides="1" tooltips="1" connect="1" arrows="1" fold="1" page="1" pageScale="1" pageWidth="1100" pageHeight="850" math="0" shadow="0">
      <root>
        <mxCell id="Ij6mURs19bZ1_h7QbdJK-0" />
        <mxCell id="Ij6mURs19bZ1_h7QbdJK-1" parent="Ij6mURs19bZ1_h7QbdJK-0" />
        <mxCell id="Ij6mURs19bZ1_h7QbdJK-2" value="3" style="rounded=0;whiteSpace=wrap;html=1;fontFamily=Ubuntu;fontSource=https%3A%2F%2Ffonts.googleapis.com%2Fcss%3Ffamily%3DUbuntu;fontSize=17;fillColor=#d5e8d4;strokeColor=#82b366;" vertex="1" parent="Ij6mURs19bZ1_h7QbdJK-1">
          <mxGeometry x="160" y="120" width="40" height="40" as="geometry" />
        </mxCell>
        <mxCell id="Ij6mURs19bZ1_h7QbdJK-3" value="-2" style="rounded=0;whiteSpace=wrap;html=1;fontFamily=Ubuntu;fontSource=https%3A%2F%2Ffonts.googleapis.com%2Fcss%3Ffamily%3DUbuntu;fontSize=17;" vertex="1" parent="Ij6mURs19bZ1_h7QbdJK-1">
          <mxGeometry x="200" y="120" width="40" height="40" as="geometry" />
        </mxCell>
        <mxCell id="Ij6mURs19bZ1_h7QbdJK-4" value="-5" style="rounded=0;whiteSpace=wrap;html=1;fontFamily=Ubuntu;fontSource=https%3A%2F%2Ffonts.googleapis.com%2Fcss%3Ffamily%3DUbuntu;fontSize=17;" vertex="1" parent="Ij6mURs19bZ1_h7QbdJK-1">
          <mxGeometry x="240" y="120" width="40" height="40" as="geometry" />
        </mxCell>
        <mxCell id="Ij6mURs19bZ1_h7QbdJK-5" value="7" style="rounded=0;whiteSpace=wrap;html=1;fontFamily=Ubuntu;fontSource=https%3A%2F%2Ffonts.googleapis.com%2Fcss%3Ffamily%3DUbuntu;fontSize=17;" vertex="1" parent="Ij6mURs19bZ1_h7QbdJK-1">
          <mxGeometry x="280" y="120" width="40" height="40" as="geometry" />
        </mxCell>
        <mxCell id="Ij6mURs19bZ1_h7QbdJK-6" value="-5" style="rounded=0;whiteSpace=wrap;html=1;fontFamily=Ubuntu;fontSource=https%3A%2F%2Ffonts.googleapis.com%2Fcss%3Ffamily%3DUbuntu;fontSize=17;" vertex="1" parent="Ij6mURs19bZ1_h7QbdJK-1">
          <mxGeometry x="320" y="120" width="40" height="40" as="geometry" />
        </mxCell>
        <mxCell id="Ij6mURs19bZ1_h7QbdJK-7" value="4" style="rounded=0;whiteSpace=wrap;html=1;fontFamily=Ubuntu;fontSource=https%3A%2F%2Ffonts.googleapis.com%2Fcss%3Ffamily%3DUbuntu;fontSize=17;" vertex="1" parent="Ij6mURs19bZ1_h7QbdJK-1">
          <mxGeometry x="360" y="120" width="40" height="40" as="geometry" />
        </mxCell>
        <mxCell id="Ij6mURs19bZ1_h7QbdJK-8" value="2" style="rounded=0;whiteSpace=wrap;html=1;fontFamily=Ubuntu;fontSource=https%3A%2F%2Ffonts.googleapis.com%2Fcss%3Ffamily%3DUbuntu;fontSize=17;" vertex="1" parent="Ij6mURs19bZ1_h7QbdJK-1">
          <mxGeometry x="400" y="120" width="40" height="40" as="geometry" />
        </mxCell>
        <mxCell id="Ij6mURs19bZ1_h7QbdJK-9" value="4" style="rounded=0;whiteSpace=wrap;html=1;fontFamily=Ubuntu;fontSource=https%3A%2F%2Ffonts.googleapis.com%2Fcss%3Ffamily%3DUbuntu;fontSize=17;" vertex="1" parent="Ij6mURs19bZ1_h7QbdJK-1">
          <mxGeometry x="440" y="120" width="40" height="40" as="geometry" />
        </mxCell>
        <mxCell id="Ij6mURs19bZ1_h7QbdJK-10" value="6" style="rounded=0;whiteSpace=wrap;html=1;fontFamily=Ubuntu;fontSource=https%3A%2F%2Ffonts.googleapis.com%2Fcss%3Ffamily%3DUbuntu;fontSize=17;" vertex="1" parent="Ij6mURs19bZ1_h7QbdJK-1">
          <mxGeometry x="480" y="120" width="40" height="40" as="geometry" />
        </mxCell>
        <mxCell id="Ij6mURs19bZ1_h7QbdJK-11" value="-3" style="rounded=0;whiteSpace=wrap;html=1;fontFamily=Ubuntu;fontSource=https%3A%2F%2Ffonts.googleapis.com%2Fcss%3Ffamily%3DUbuntu;fontSize=17;" vertex="1" parent="Ij6mURs19bZ1_h7QbdJK-1">
          <mxGeometry x="520" y="120" width="40" height="40" as="geometry" />
        </mxCell>
        <mxCell id="Ij6mURs19bZ1_h7QbdJK-12" value="" style="endArrow=none;dashed=1;html=1;rounded=0;" edge="1" parent="Ij6mURs19bZ1_h7QbdJK-1">
          <mxGeometry width="50" height="50" relative="1" as="geometry">
            <mxPoint x="239" y="480" as="sourcePoint" />
            <mxPoint x="239" y="90" as="targetPoint" />
          </mxGeometry>
        </mxCell>
        <mxCell id="Ij6mURs19bZ1_h7QbdJK-13" value="SORTED" style="text;html=1;strokeColor=none;fillColor=none;align=center;verticalAlign=middle;whiteSpace=wrap;rounded=0;fontFamily=Ubuntu;fontSource=https%3A%2F%2Ffonts.googleapis.com%2Fcss%3Ffamily%3DUbuntu;fontSize=16;" vertex="1" parent="Ij6mURs19bZ1_h7QbdJK-1">
          <mxGeometry x="120" y="60" width="60" height="30" as="geometry" />
        </mxCell>
        <mxCell id="Ij6mURs19bZ1_h7QbdJK-14" value="UNSORTED" style="text;html=1;strokeColor=none;fillColor=none;align=center;verticalAlign=middle;whiteSpace=wrap;rounded=0;fontFamily=Ubuntu;fontSource=https%3A%2F%2Ffonts.googleapis.com%2Fcss%3Ffamily%3DUbuntu;fontSize=16;" vertex="1" parent="Ij6mURs19bZ1_h7QbdJK-1">
          <mxGeometry x="255" y="60" width="90" height="30" as="geometry" />
        </mxCell>
        <mxCell id="Ij6mURs19bZ1_h7QbdJK-15" value="number = -5" style="text;html=1;strokeColor=none;fillColor=none;align=center;verticalAlign=middle;whiteSpace=wrap;rounded=0;fontFamily=Ubuntu;fontSource=https%3A%2F%2Ffonts.googleapis.com%2Fcss%3Ffamily%3DUbuntu;fontSize=16;" vertex="1" parent="Ij6mURs19bZ1_h7QbdJK-1">
          <mxGeometry x="240" y="270" width="110" height="30" as="geometry" />
        </mxCell>
        <mxCell id="Ij6mURs19bZ1_h7QbdJK-16" value="" style="shape=stencil(nVjZkhoxDPwaXlW+bT1vNv+xVcsGKgS2WHL9fTQhHpCY6YG8cahtWVK3ZK/i08fm5X29Cu7jdDx8Xf/cvp42q/hpFcJ2v1kftyf5tIrPq/j0djiuvxwP3/ev5+/vL4Pl8Onb4cewwq8zzmfKbkAF9/v8iyNOf3/4fLbfbfdX9iFTy8peFqjz9jFQDsq+UfbAvlHV/njfV5gEpEStaUCiWuYB2ZOLGtDIgyPkQo0VIHgqbR5QAgXtkgQpMgBU8jqogcmBHaq3UZU4/4vbNEDSVjSgUAKHrkysd0iOIiiMFvvfIyCRB4lrpcdkBFRiUBpNYqJdklSWOA9gb2s7Z/KgNDhS0S7lRgntkKlql4qnBBLHlZKOUkkUQOK49VIbAYUqcMk7R06fWqoloEM0G6aaerVMAxIVXa619jjMZY71Ds3BUzfhi1EN0RHgUhuPOAIyLCap76wJ0RpFRLlmCSHltcAgbwAVHlp2SDqskhkHZKMKhdkCGO0QKelDM0NxLWyrjxnuUKQbGHG91OM0wk/41AAgVyvHAkDKNJD+JkwFAWL/+ypz0CWJq0n12DOmAYlysgAHEjH0IJOITAFUXxkJNgIS5KjokOlBAkDaV5rl6AKghu7xnS5J08r8yKFFhjg+ElbhqMsWgBInHG03pEalIS6ZWWCh+ER7s4kSLm9Rd6P3A4GA9EkD4Qc5KsPFQzKQecInJDTCUa42TAsMMsPAgljmm/lkQY7/B2D1W5ZAk2gkNmEV1uIoGQa12lvxnFZWAxDKAYCosWnt0llRHx2mEc1R4VRAfTRZ2ZA25hc6tZk2Qifh9CzgOiPHkUkYhISJbwAJDpaiAtVrgEQJZFpUwOtaygudOvdh5Gp0RXcOae1eu5QDnHWro6IBCd/M5JJSdJSGqxdSDcm02cGTRx3F2RYU61JnN5fFGLuTc3e/pPkQRflAR0mFigaEAgd8OWLU40wIkEAx22HDM9xBroZFE8hjAoVoKeoDLD65D0ej3sRANGQ506crlGLXVxtD1EtxxjwkYx6guWk9vjev+1aXBIKzjq8jV88lwDyQK8Y8g8hEOxa6TqHpcrZ5EgIhUenN5WKOuj73MN9n7kdy3+eNVI2Z410/zrS9yEl9IJaPvmwt28uHyzPa23a3O7/CXf9vn93kp/OTXXz+Aw==);lineShape=1;" vertex="1" parent="Ij6mURs19bZ1_h7QbdJK-1">
          <mxGeometry x="254.9968542554669" y="160.0000513133393" width="22.41062627290694" height="102.89660658375567" as="geometry" />
        </mxCell>
        <mxCell id="Ij6mURs19bZ1_h7QbdJK-17" value="" style="shape=stencil(lVfLbttADPwaXQnucp/nNP2PAHFqo24cOO7r70tVWNukrQlyk2WORA6Hs9QkD+/bp7fNFPn9dDx83/zePZ+2k3yZYty9bjfH3UmvJnmc5OHlcNx8Ox5+vj4vv9+e5sj56sfh1/yEPwsuROplRkX+u9xJFPj/ja9L/H73eh3fqQUTHwq1vA6IjVI0AEmU+zpA/072DZmJ4zogMaVmACVTAimlmxpmQFgH5H6TklADNZRC2QJSpCjrgKrPYwNQ3hj0oQmx2D4oSwkAMoltdKFUQXyjaPuWSNp6fA8krmRYQE8+XhME+fRC3TLUSEC9vVGz+avUC2hyV1VYgkKlCnSnAJdRFAo4JTdrcw2Io0rBzY7WgEg6j9YZkKnirhXbBamjL2uyyDcAZBiquxJ9SgEJT7zwJFAFs9MCZTv/UVNCAKZWLSBAD9M3BCcNHZ4CANEbRtAkEUvJ01rHjfvxddjJZdqQIXWmaDkS6oCiLmO4Ls9HPdDpDD7/gPJRd6meIEbK7l5GIVMHPQvMw3+uuiyohj4M7gwoVNA8V28x8sEbFCCfAagsohVeVuKAjqqaqDUAPVkQTXpSOZZaGVXdPwuLnwXtfQQWk5K3mKvW3N8AhJIVn/paAa/QPnG2RcThCfcB7D2mJKym7D1Gl5KGOudXDF1rGhjoSGzjVawdOAyPdM+kdrjCsBfS7GBgQG+GJwg8nnl4+tU6ghYepmrj1dAQ/1RtuQme5TK85MwmXgip2Kcru2AEip8xJQuIrQ0nvApHh75fEhhqP9yeftBIP73wfxivF5evi5fdfr98nFz/779G9NbyJSOP/wA=);lineShape=1;" vertex="1" parent="Ij6mURs19bZ1_h7QbdJK-1">
          <mxGeometry x="255.00489401130446" y="250.00409118075407" width="29.46511019953391" height="16.85044185188781" as="geometry" />
        </mxCell>
        <mxCell id="Ij6mURs19bZ1_h7QbdJK-30" value="-2" style="rounded=0;whiteSpace=wrap;html=1;fontFamily=Ubuntu;fontSource=https%3A%2F%2Ffonts.googleapis.com%2Fcss%3Ffamily%3DUbuntu;fontSize=17;fillColor=#d5e8d4;strokeColor=#82b366;" vertex="1" parent="Ij6mURs19bZ1_h7QbdJK-1">
          <mxGeometry x="160" y="120" width="40" height="40" as="geometry" />
        </mxCell>
        <mxCell id="Ij6mURs19bZ1_h7QbdJK-31" value="3" style="rounded=0;whiteSpace=wrap;html=1;fontFamily=Ubuntu;fontSource=https%3A%2F%2Ffonts.googleapis.com%2Fcss%3Ffamily%3DUbuntu;fontSize=17;fillColor=#d5e8d4;strokeColor=#82b366;" vertex="1" parent="Ij6mURs19bZ1_h7QbdJK-1">
          <mxGeometry x="200" y="120" width="40" height="40" as="geometry" />
        </mxCell>
        <mxCell id="Ij6mURs19bZ1_h7QbdJK-32" value="-5" style="rounded=0;whiteSpace=wrap;html=1;fontFamily=Ubuntu;fontSource=https%3A%2F%2Ffonts.googleapis.com%2Fcss%3Ffamily%3DUbuntu;fontSize=17;" vertex="1" parent="Ij6mURs19bZ1_h7QbdJK-1">
          <mxGeometry x="240" y="120" width="40" height="40" as="geometry" />
        </mxCell>
        <mxCell id="Ij6mURs19bZ1_h7QbdJK-33" value="7" style="rounded=0;whiteSpace=wrap;html=1;fontFamily=Ubuntu;fontSource=https%3A%2F%2Ffonts.googleapis.com%2Fcss%3Ffamily%3DUbuntu;fontSize=17;" vertex="1" parent="Ij6mURs19bZ1_h7QbdJK-1">
          <mxGeometry x="280" y="120" width="40" height="40" as="geometry" />
        </mxCell>
        <mxCell id="Ij6mURs19bZ1_h7QbdJK-34" value="-5" style="rounded=0;whiteSpace=wrap;html=1;fontFamily=Ubuntu;fontSource=https%3A%2F%2Ffonts.googleapis.com%2Fcss%3Ffamily%3DUbuntu;fontSize=17;" vertex="1" parent="Ij6mURs19bZ1_h7QbdJK-1">
          <mxGeometry x="320" y="120" width="40" height="40" as="geometry" />
        </mxCell>
        <mxCell id="Ij6mURs19bZ1_h7QbdJK-35" value="4" style="rounded=0;whiteSpace=wrap;html=1;fontFamily=Ubuntu;fontSource=https%3A%2F%2Ffonts.googleapis.com%2Fcss%3Ffamily%3DUbuntu;fontSize=17;" vertex="1" parent="Ij6mURs19bZ1_h7QbdJK-1">
          <mxGeometry x="360" y="120" width="40" height="40" as="geometry" />
        </mxCell>
        <mxCell id="Ij6mURs19bZ1_h7QbdJK-36" value="2" style="rounded=0;whiteSpace=wrap;html=1;fontFamily=Ubuntu;fontSource=https%3A%2F%2Ffonts.googleapis.com%2Fcss%3Ffamily%3DUbuntu;fontSize=17;" vertex="1" parent="Ij6mURs19bZ1_h7QbdJK-1">
          <mxGeometry x="400" y="120" width="40" height="40" as="geometry" />
        </mxCell>
        <mxCell id="Ij6mURs19bZ1_h7QbdJK-37" value="4" style="rounded=0;whiteSpace=wrap;html=1;fontFamily=Ubuntu;fontSource=https%3A%2F%2Ffonts.googleapis.com%2Fcss%3Ffamily%3DUbuntu;fontSize=17;" vertex="1" parent="Ij6mURs19bZ1_h7QbdJK-1">
          <mxGeometry x="440" y="120" width="40" height="40" as="geometry" />
        </mxCell>
        <mxCell id="Ij6mURs19bZ1_h7QbdJK-38" value="6" style="rounded=0;whiteSpace=wrap;html=1;fontFamily=Ubuntu;fontSource=https%3A%2F%2Ffonts.googleapis.com%2Fcss%3Ffamily%3DUbuntu;fontSize=17;" vertex="1" parent="Ij6mURs19bZ1_h7QbdJK-1">
          <mxGeometry x="480" y="120" width="40" height="40" as="geometry" />
        </mxCell>
        <mxCell id="Ij6mURs19bZ1_h7QbdJK-39" value="-3" style="rounded=0;whiteSpace=wrap;html=1;fontFamily=Ubuntu;fontSource=https%3A%2F%2Ffonts.googleapis.com%2Fcss%3Ffamily%3DUbuntu;fontSize=17;" vertex="1" parent="Ij6mURs19bZ1_h7QbdJK-1">
          <mxGeometry x="520" y="120" width="40" height="40" as="geometry" />
        </mxCell>
        <mxCell id="mQ-iHaAch-nRiOGHPtqo-0" value="-5" style="rounded=0;whiteSpace=wrap;html=1;fontFamily=Ubuntu;fontSource=https%3A%2F%2Ffonts.googleapis.com%2Fcss%3Ffamily%3DUbuntu;fontSize=17;fillColor=#d5e8d4;strokeColor=#82b366;" vertex="1" parent="Ij6mURs19bZ1_h7QbdJK-1">
          <mxGeometry x="160" y="320" width="40" height="40" as="geometry" />
        </mxCell>
        <mxCell id="mQ-iHaAch-nRiOGHPtqo-1" value="-2" style="rounded=0;whiteSpace=wrap;html=1;fontFamily=Ubuntu;fontSource=https%3A%2F%2Ffonts.googleapis.com%2Fcss%3Ffamily%3DUbuntu;fontSize=17;fillColor=#d5e8d4;strokeColor=#82b366;" vertex="1" parent="Ij6mURs19bZ1_h7QbdJK-1">
          <mxGeometry x="200" y="320" width="40" height="40" as="geometry" />
        </mxCell>
        <mxCell id="mQ-iHaAch-nRiOGHPtqo-2" value="3" style="rounded=0;whiteSpace=wrap;html=1;fontFamily=Ubuntu;fontSource=https%3A%2F%2Ffonts.googleapis.com%2Fcss%3Ffamily%3DUbuntu;fontSize=17;" vertex="1" parent="Ij6mURs19bZ1_h7QbdJK-1">
          <mxGeometry x="240" y="320" width="40" height="40" as="geometry" />
        </mxCell>
        <mxCell id="mQ-iHaAch-nRiOGHPtqo-3" value="7" style="rounded=0;whiteSpace=wrap;html=1;fontFamily=Ubuntu;fontSource=https%3A%2F%2Ffonts.googleapis.com%2Fcss%3Ffamily%3DUbuntu;fontSize=17;" vertex="1" parent="Ij6mURs19bZ1_h7QbdJK-1">
          <mxGeometry x="280" y="320" width="40" height="40" as="geometry" />
        </mxCell>
        <mxCell id="mQ-iHaAch-nRiOGHPtqo-4" value="-5" style="rounded=0;whiteSpace=wrap;html=1;fontFamily=Ubuntu;fontSource=https%3A%2F%2Ffonts.googleapis.com%2Fcss%3Ffamily%3DUbuntu;fontSize=17;" vertex="1" parent="Ij6mURs19bZ1_h7QbdJK-1">
          <mxGeometry x="320" y="320" width="40" height="40" as="geometry" />
        </mxCell>
        <mxCell id="mQ-iHaAch-nRiOGHPtqo-5" value="4" style="rounded=0;whiteSpace=wrap;html=1;fontFamily=Ubuntu;fontSource=https%3A%2F%2Ffonts.googleapis.com%2Fcss%3Ffamily%3DUbuntu;fontSize=17;" vertex="1" parent="Ij6mURs19bZ1_h7QbdJK-1">
          <mxGeometry x="360" y="320" width="40" height="40" as="geometry" />
        </mxCell>
        <mxCell id="mQ-iHaAch-nRiOGHPtqo-6" value="2" style="rounded=0;whiteSpace=wrap;html=1;fontFamily=Ubuntu;fontSource=https%3A%2F%2Ffonts.googleapis.com%2Fcss%3Ffamily%3DUbuntu;fontSize=17;" vertex="1" parent="Ij6mURs19bZ1_h7QbdJK-1">
          <mxGeometry x="400" y="320" width="40" height="40" as="geometry" />
        </mxCell>
        <mxCell id="mQ-iHaAch-nRiOGHPtqo-7" value="4" style="rounded=0;whiteSpace=wrap;html=1;fontFamily=Ubuntu;fontSource=https%3A%2F%2Ffonts.googleapis.com%2Fcss%3Ffamily%3DUbuntu;fontSize=17;" vertex="1" parent="Ij6mURs19bZ1_h7QbdJK-1">
          <mxGeometry x="440" y="320" width="40" height="40" as="geometry" />
        </mxCell>
        <mxCell id="mQ-iHaAch-nRiOGHPtqo-8" value="6" style="rounded=0;whiteSpace=wrap;html=1;fontFamily=Ubuntu;fontSource=https%3A%2F%2Ffonts.googleapis.com%2Fcss%3Ffamily%3DUbuntu;fontSize=17;" vertex="1" parent="Ij6mURs19bZ1_h7QbdJK-1">
          <mxGeometry x="480" y="320" width="40" height="40" as="geometry" />
        </mxCell>
        <mxCell id="mQ-iHaAch-nRiOGHPtqo-9" value="-3" style="rounded=0;whiteSpace=wrap;html=1;fontFamily=Ubuntu;fontSource=https%3A%2F%2Ffonts.googleapis.com%2Fcss%3Ffamily%3DUbuntu;fontSize=17;" vertex="1" parent="Ij6mURs19bZ1_h7QbdJK-1">
          <mxGeometry x="520" y="320" width="40" height="40" as="geometry" />
        </mxCell>
        <mxCell id="mQ-iHaAch-nRiOGHPtqo-10" value="" style="shape=stencil(lVjLctswDPwaXzEkQRLkOU3/IzNxGk/dOOOkr78vXA9VAZLWzU2WsRQIYIEld3z39vzwut+l8PZ+Pn3d/zw8vj/v+NMupcPL8/58eNenHd/v+O7pdN5/OZ++vzxef78+XCwvT99OPy4r/LriulDMF1QKv69vYqDc/r75fAUcDy8zQGtUugdEBGDKC0BP2wBplJoFJAoIwBTEApgqbwNqo+gAhaoAgK7nXFIn6zag9BHEAUiRIthDUQdsHlKmGAFAYxItQCiDTWdNXDEAVpcCABRKNkpcKHQAiNSSBXTivA1gzQMbQGbqoJY4U64W0EiASxxIggEU/QIApErNVqumsoDSSFreNg+1wEwnpYvdg0xOrgKi+DxIpQS+EPPweABapFoAIFCxieuREnApeML1TA3kTe1tnnuiBoo7ENtS7WGU1voGPBdahzmI1C3Zmoy0r5cRhYU9or9Sty/swfrFdzy1Rzyoi/U7JZBgLWr28UQskBG9Wb6wvYtP104B4lOpWlb2CvdbqLn1tZmBxpIX9kpi1FdIbP3EoCULCJCoVP8BQQxbEKxRA/aLtqVzOkNCuoGmCShw/eDWZypw/eTs4+jEW/7b+GiBVpAw7U+OwDpfgX2i6tYXYkjgFr09anB5pUFUWKA9ef8FCYrRj2eEZGAvg04zQjJooB+1n/TS5H8lQZLLNyDpUK30sdpkP1FuvR7S4Os0VSfNtg4oJHYHVXeMRoA6bFNQKhWgn1LyNVQCrAlNstgiyhlOPRUrTgPe0k8qh5zgykONbAmu5ESj8hJLOnE6tsDjgYpGp9CU24yY1keapt4rsBWpgGP7hXhDKcviAKLqBh0PFtK6UQZpqDq8XCnB5i7Jd2vG9jJyNMV0KMKtE5eT1XHoi80jnd1vGJW7TuZFd8HDUu3F20cQf52NrqwDlOA6e900izA+fXk4g8NA7R3zGTZTte82Xxl2lpnYmBXQDYdso5AhsLfsnfxo4wyyGVA3PnB3b55hHRa0FkRbXDrAiH70luI/APrw71Lk6XA8Xu9U5v/7SxR9db2A4fs/);lineShape=1;" vertex="1" parent="Ij6mURs19bZ1_h7QbdJK-1">
          <mxGeometry x="164.71685725820703" y="282.03904983254756" width="67.23316080505288" height="37.4186290685077" as="geometry" />
        </mxCell>
        <mxCell id="mQ-iHaAch-nRiOGHPtqo-11" value="" style="shape=stencil(lVfLbttADPwaXQly33tO0/8IEKc26tqB4/Tx96UrrGLS1hS5ydKOl+QMh7tTfHjbPr1upsBv59Px++bX7vm8neKXKYTdYbs57c76NMXHKT68HE+bb6fj++F5/v36dFl5efpx/Hn5h98zToQKX1CB/8xvCsX878XXef1+d7hev3we60MiFgDo1IoBxEo5rQNCpiwGkBvlsA6ITCEYQBVKAJCEerM5d+K4DsgaUrSABAElktiQihC3dUBlStUnLRUAKjUHyJRASF2oWqKzUAA79OirpAABOfRCYpnOgTLaoRGzzyF0AOgUbVmzEgfUqoBuq6TMpAIBrVuABoly0AAsoAaKqEqVSrKATB30Q8+euNoooippipa42nHSKgTxAFTW1r28VY6BAaAObS6ANOp2H1A809ohDHJoWkSbQ1madm2HYHkoPAS/lkNwHVdGD94HNOpO3nFwf58HDcB6q3ZcQT0dvfMpgLGWUvGAjhpIibNVyokCArSbHOrQ72rHOW/FIQmzt41S4ETRLbz6ZPzFWhLiOiiNKbZmfdG5gGYNRlBPXn3actCNPwto7KluEQKqfnaAAl1AG6w7gPoCOApcRprloeuAADykRNHuoHqsgOko3lyv1HL/tMHeyjSJApgTHYuOaqYCsm5U7fqkb0BZ88hwOS/h+cBUrVYFH5duTkuiOwKTuek2CTB+LaiNv1MFrcOesTKM/H75KVl7SXAWhmEMy2mVItIPNfvvDB1+Oa18LEeHvOKZwtJsvuO1VMh5KTsdwHEmPAxq0Rku/GcvCv9drw8ft5KX3X4/X2quv/tbjL6ab0Dx8S8=);lineShape=1;" vertex="1" parent="Ij6mURs19bZ1_h7QbdJK-1">
          <mxGeometry x="158.80074027021033" y="304.8099633486411" width="35.51896347514321" height="17.61594606896574" as="geometry" />
        </mxCell>
      </root>
    </mxGraphModel>
  </diagram>
  <diagram name="Copy of Copy of Page-1" id="kVYx7msdEjtpdu4C-f9j">
    <mxGraphModel dx="880" dy="486" grid="1" gridSize="10" guides="1" tooltips="1" connect="1" arrows="1" fold="1" page="1" pageScale="1" pageWidth="1100" pageHeight="850" math="0" shadow="0">
      <root>
        <mxCell id="yLzjmKvw4pbnI5d4b2Pk-0" />
        <mxCell id="yLzjmKvw4pbnI5d4b2Pk-1" parent="yLzjmKvw4pbnI5d4b2Pk-0" />
        <mxCell id="yLzjmKvw4pbnI5d4b2Pk-2" value="3" style="rounded=0;whiteSpace=wrap;html=1;fontFamily=Ubuntu;fontSource=https%3A%2F%2Ffonts.googleapis.com%2Fcss%3Ffamily%3DUbuntu;fontSize=17;fillColor=#d5e8d4;strokeColor=#82b366;" vertex="1" parent="yLzjmKvw4pbnI5d4b2Pk-1">
          <mxGeometry x="160" y="120" width="40" height="40" as="geometry" />
        </mxCell>
        <mxCell id="yLzjmKvw4pbnI5d4b2Pk-3" value="-2" style="rounded=0;whiteSpace=wrap;html=1;fontFamily=Ubuntu;fontSource=https%3A%2F%2Ffonts.googleapis.com%2Fcss%3Ffamily%3DUbuntu;fontSize=17;" vertex="1" parent="yLzjmKvw4pbnI5d4b2Pk-1">
          <mxGeometry x="200" y="120" width="40" height="40" as="geometry" />
        </mxCell>
        <mxCell id="yLzjmKvw4pbnI5d4b2Pk-4" value="-5" style="rounded=0;whiteSpace=wrap;html=1;fontFamily=Ubuntu;fontSource=https%3A%2F%2Ffonts.googleapis.com%2Fcss%3Ffamily%3DUbuntu;fontSize=17;" vertex="1" parent="yLzjmKvw4pbnI5d4b2Pk-1">
          <mxGeometry x="240" y="120" width="40" height="40" as="geometry" />
        </mxCell>
        <mxCell id="yLzjmKvw4pbnI5d4b2Pk-5" value="7" style="rounded=0;whiteSpace=wrap;html=1;fontFamily=Ubuntu;fontSource=https%3A%2F%2Ffonts.googleapis.com%2Fcss%3Ffamily%3DUbuntu;fontSize=17;" vertex="1" parent="yLzjmKvw4pbnI5d4b2Pk-1">
          <mxGeometry x="280" y="120" width="40" height="40" as="geometry" />
        </mxCell>
        <mxCell id="yLzjmKvw4pbnI5d4b2Pk-6" value="-5" style="rounded=0;whiteSpace=wrap;html=1;fontFamily=Ubuntu;fontSource=https%3A%2F%2Ffonts.googleapis.com%2Fcss%3Ffamily%3DUbuntu;fontSize=17;" vertex="1" parent="yLzjmKvw4pbnI5d4b2Pk-1">
          <mxGeometry x="320" y="120" width="40" height="40" as="geometry" />
        </mxCell>
        <mxCell id="yLzjmKvw4pbnI5d4b2Pk-7" value="4" style="rounded=0;whiteSpace=wrap;html=1;fontFamily=Ubuntu;fontSource=https%3A%2F%2Ffonts.googleapis.com%2Fcss%3Ffamily%3DUbuntu;fontSize=17;" vertex="1" parent="yLzjmKvw4pbnI5d4b2Pk-1">
          <mxGeometry x="360" y="120" width="40" height="40" as="geometry" />
        </mxCell>
        <mxCell id="yLzjmKvw4pbnI5d4b2Pk-8" value="2" style="rounded=0;whiteSpace=wrap;html=1;fontFamily=Ubuntu;fontSource=https%3A%2F%2Ffonts.googleapis.com%2Fcss%3Ffamily%3DUbuntu;fontSize=17;" vertex="1" parent="yLzjmKvw4pbnI5d4b2Pk-1">
          <mxGeometry x="400" y="120" width="40" height="40" as="geometry" />
        </mxCell>
        <mxCell id="yLzjmKvw4pbnI5d4b2Pk-9" value="4" style="rounded=0;whiteSpace=wrap;html=1;fontFamily=Ubuntu;fontSource=https%3A%2F%2Ffonts.googleapis.com%2Fcss%3Ffamily%3DUbuntu;fontSize=17;" vertex="1" parent="yLzjmKvw4pbnI5d4b2Pk-1">
          <mxGeometry x="440" y="120" width="40" height="40" as="geometry" />
        </mxCell>
        <mxCell id="yLzjmKvw4pbnI5d4b2Pk-10" value="6" style="rounded=0;whiteSpace=wrap;html=1;fontFamily=Ubuntu;fontSource=https%3A%2F%2Ffonts.googleapis.com%2Fcss%3Ffamily%3DUbuntu;fontSize=17;" vertex="1" parent="yLzjmKvw4pbnI5d4b2Pk-1">
          <mxGeometry x="480" y="120" width="40" height="40" as="geometry" />
        </mxCell>
        <mxCell id="yLzjmKvw4pbnI5d4b2Pk-11" value="-3" style="rounded=0;whiteSpace=wrap;html=1;fontFamily=Ubuntu;fontSource=https%3A%2F%2Ffonts.googleapis.com%2Fcss%3Ffamily%3DUbuntu;fontSize=17;" vertex="1" parent="yLzjmKvw4pbnI5d4b2Pk-1">
          <mxGeometry x="520" y="120" width="40" height="40" as="geometry" />
        </mxCell>
        <mxCell id="yLzjmKvw4pbnI5d4b2Pk-12" value="" style="endArrow=none;dashed=1;html=1;rounded=0;" edge="1" parent="yLzjmKvw4pbnI5d4b2Pk-1">
          <mxGeometry width="50" height="50" relative="1" as="geometry">
            <mxPoint x="317.79999999999995" y="470" as="sourcePoint" />
            <mxPoint x="317.79999999999995" y="80" as="targetPoint" />
          </mxGeometry>
        </mxCell>
        <mxCell id="yLzjmKvw4pbnI5d4b2Pk-13" value="SORTED" style="text;html=1;strokeColor=none;fillColor=none;align=center;verticalAlign=middle;whiteSpace=wrap;rounded=0;fontFamily=Ubuntu;fontSource=https%3A%2F%2Ffonts.googleapis.com%2Fcss%3Ffamily%3DUbuntu;fontSize=16;" vertex="1" parent="yLzjmKvw4pbnI5d4b2Pk-1">
          <mxGeometry x="244.15" y="60" width="60" height="30" as="geometry" />
        </mxCell>
        <mxCell id="yLzjmKvw4pbnI5d4b2Pk-14" value="UNSORTED" style="text;html=1;strokeColor=none;fillColor=none;align=center;verticalAlign=middle;whiteSpace=wrap;rounded=0;fontFamily=Ubuntu;fontSource=https%3A%2F%2Ffonts.googleapis.com%2Fcss%3Ffamily%3DUbuntu;fontSize=16;" vertex="1" parent="yLzjmKvw4pbnI5d4b2Pk-1">
          <mxGeometry x="347.16" y="60" width="90" height="30" as="geometry" />
        </mxCell>
        <mxCell id="yLzjmKvw4pbnI5d4b2Pk-18" value="-2" style="rounded=0;whiteSpace=wrap;html=1;fontFamily=Ubuntu;fontSource=https%3A%2F%2Ffonts.googleapis.com%2Fcss%3Ffamily%3DUbuntu;fontSize=17;fillColor=#d5e8d4;strokeColor=#82b366;" vertex="1" parent="yLzjmKvw4pbnI5d4b2Pk-1">
          <mxGeometry x="160" y="120" width="40" height="40" as="geometry" />
        </mxCell>
        <mxCell id="yLzjmKvw4pbnI5d4b2Pk-19" value="3" style="rounded=0;whiteSpace=wrap;html=1;fontFamily=Ubuntu;fontSource=https%3A%2F%2Ffonts.googleapis.com%2Fcss%3Ffamily%3DUbuntu;fontSize=17;fillColor=#d5e8d4;strokeColor=#82b366;" vertex="1" parent="yLzjmKvw4pbnI5d4b2Pk-1">
          <mxGeometry x="200" y="120" width="40" height="40" as="geometry" />
        </mxCell>
        <mxCell id="yLzjmKvw4pbnI5d4b2Pk-20" value="-5" style="rounded=0;whiteSpace=wrap;html=1;fontFamily=Ubuntu;fontSource=https%3A%2F%2Ffonts.googleapis.com%2Fcss%3Ffamily%3DUbuntu;fontSize=17;" vertex="1" parent="yLzjmKvw4pbnI5d4b2Pk-1">
          <mxGeometry x="240" y="120" width="40" height="40" as="geometry" />
        </mxCell>
        <mxCell id="yLzjmKvw4pbnI5d4b2Pk-21" value="7" style="rounded=0;whiteSpace=wrap;html=1;fontFamily=Ubuntu;fontSource=https%3A%2F%2Ffonts.googleapis.com%2Fcss%3Ffamily%3DUbuntu;fontSize=17;" vertex="1" parent="yLzjmKvw4pbnI5d4b2Pk-1">
          <mxGeometry x="280" y="120" width="40" height="40" as="geometry" />
        </mxCell>
        <mxCell id="yLzjmKvw4pbnI5d4b2Pk-22" value="-5" style="rounded=0;whiteSpace=wrap;html=1;fontFamily=Ubuntu;fontSource=https%3A%2F%2Ffonts.googleapis.com%2Fcss%3Ffamily%3DUbuntu;fontSize=17;" vertex="1" parent="yLzjmKvw4pbnI5d4b2Pk-1">
          <mxGeometry x="320" y="120" width="40" height="40" as="geometry" />
        </mxCell>
        <mxCell id="yLzjmKvw4pbnI5d4b2Pk-23" value="4" style="rounded=0;whiteSpace=wrap;html=1;fontFamily=Ubuntu;fontSource=https%3A%2F%2Ffonts.googleapis.com%2Fcss%3Ffamily%3DUbuntu;fontSize=17;" vertex="1" parent="yLzjmKvw4pbnI5d4b2Pk-1">
          <mxGeometry x="360" y="120" width="40" height="40" as="geometry" />
        </mxCell>
        <mxCell id="yLzjmKvw4pbnI5d4b2Pk-24" value="2" style="rounded=0;whiteSpace=wrap;html=1;fontFamily=Ubuntu;fontSource=https%3A%2F%2Ffonts.googleapis.com%2Fcss%3Ffamily%3DUbuntu;fontSize=17;" vertex="1" parent="yLzjmKvw4pbnI5d4b2Pk-1">
          <mxGeometry x="400" y="120" width="40" height="40" as="geometry" />
        </mxCell>
        <mxCell id="yLzjmKvw4pbnI5d4b2Pk-25" value="4" style="rounded=0;whiteSpace=wrap;html=1;fontFamily=Ubuntu;fontSource=https%3A%2F%2Ffonts.googleapis.com%2Fcss%3Ffamily%3DUbuntu;fontSize=17;" vertex="1" parent="yLzjmKvw4pbnI5d4b2Pk-1">
          <mxGeometry x="440" y="120" width="40" height="40" as="geometry" />
        </mxCell>
        <mxCell id="yLzjmKvw4pbnI5d4b2Pk-26" value="6" style="rounded=0;whiteSpace=wrap;html=1;fontFamily=Ubuntu;fontSource=https%3A%2F%2Ffonts.googleapis.com%2Fcss%3Ffamily%3DUbuntu;fontSize=17;" vertex="1" parent="yLzjmKvw4pbnI5d4b2Pk-1">
          <mxGeometry x="480" y="120" width="40" height="40" as="geometry" />
        </mxCell>
        <mxCell id="yLzjmKvw4pbnI5d4b2Pk-27" value="-3" style="rounded=0;whiteSpace=wrap;html=1;fontFamily=Ubuntu;fontSource=https%3A%2F%2Ffonts.googleapis.com%2Fcss%3Ffamily%3DUbuntu;fontSize=17;" vertex="1" parent="yLzjmKvw4pbnI5d4b2Pk-1">
          <mxGeometry x="520" y="120" width="40" height="40" as="geometry" />
        </mxCell>
        <mxCell id="0qR9nPcdmzWhLlfQivMT-0" value="-5" style="rounded=0;whiteSpace=wrap;html=1;fontFamily=Ubuntu;fontSource=https%3A%2F%2Ffonts.googleapis.com%2Fcss%3Ffamily%3DUbuntu;fontSize=17;fillColor=#d5e8d4;strokeColor=#82b366;" vertex="1" parent="yLzjmKvw4pbnI5d4b2Pk-1">
          <mxGeometry x="158.8" y="120" width="40" height="40" as="geometry" />
        </mxCell>
        <mxCell id="0qR9nPcdmzWhLlfQivMT-1" value="-2" style="rounded=0;whiteSpace=wrap;html=1;fontFamily=Ubuntu;fontSource=https%3A%2F%2Ffonts.googleapis.com%2Fcss%3Ffamily%3DUbuntu;fontSize=17;fillColor=#d5e8d4;strokeColor=#82b366;" vertex="1" parent="yLzjmKvw4pbnI5d4b2Pk-1">
          <mxGeometry x="198.8" y="120" width="40" height="40" as="geometry" />
        </mxCell>
        <mxCell id="0qR9nPcdmzWhLlfQivMT-2" value="3" style="rounded=0;whiteSpace=wrap;html=1;fontFamily=Ubuntu;fontSource=https%3A%2F%2Ffonts.googleapis.com%2Fcss%3Ffamily%3DUbuntu;fontSize=17;fillColor=#d5e8d4;strokeColor=#82b366;" vertex="1" parent="yLzjmKvw4pbnI5d4b2Pk-1">
          <mxGeometry x="238.8" y="120" width="40" height="40" as="geometry" />
        </mxCell>
        <mxCell id="0qR9nPcdmzWhLlfQivMT-3" value="7" style="rounded=0;whiteSpace=wrap;html=1;fontFamily=Ubuntu;fontSource=https%3A%2F%2Ffonts.googleapis.com%2Fcss%3Ffamily%3DUbuntu;fontSize=17;fillColor=#dae8fc;strokeColor=#6c8ebf;" vertex="1" parent="yLzjmKvw4pbnI5d4b2Pk-1">
          <mxGeometry x="278.8" y="120" width="40" height="40" as="geometry" />
        </mxCell>
        <mxCell id="0qR9nPcdmzWhLlfQivMT-4" value="-5" style="rounded=0;whiteSpace=wrap;html=1;fontFamily=Ubuntu;fontSource=https%3A%2F%2Ffonts.googleapis.com%2Fcss%3Ffamily%3DUbuntu;fontSize=17;" vertex="1" parent="yLzjmKvw4pbnI5d4b2Pk-1">
          <mxGeometry x="318.8" y="120" width="40" height="40" as="geometry" />
        </mxCell>
        <mxCell id="0qR9nPcdmzWhLlfQivMT-5" value="4" style="rounded=0;whiteSpace=wrap;html=1;fontFamily=Ubuntu;fontSource=https%3A%2F%2Ffonts.googleapis.com%2Fcss%3Ffamily%3DUbuntu;fontSize=17;" vertex="1" parent="yLzjmKvw4pbnI5d4b2Pk-1">
          <mxGeometry x="358.8" y="120" width="40" height="40" as="geometry" />
        </mxCell>
        <mxCell id="0qR9nPcdmzWhLlfQivMT-6" value="2" style="rounded=0;whiteSpace=wrap;html=1;fontFamily=Ubuntu;fontSource=https%3A%2F%2Ffonts.googleapis.com%2Fcss%3Ffamily%3DUbuntu;fontSize=17;" vertex="1" parent="yLzjmKvw4pbnI5d4b2Pk-1">
          <mxGeometry x="398.8" y="120" width="40" height="40" as="geometry" />
        </mxCell>
        <mxCell id="0qR9nPcdmzWhLlfQivMT-7" value="4" style="rounded=0;whiteSpace=wrap;html=1;fontFamily=Ubuntu;fontSource=https%3A%2F%2Ffonts.googleapis.com%2Fcss%3Ffamily%3DUbuntu;fontSize=17;" vertex="1" parent="yLzjmKvw4pbnI5d4b2Pk-1">
          <mxGeometry x="438.8" y="120" width="40" height="40" as="geometry" />
        </mxCell>
        <mxCell id="0qR9nPcdmzWhLlfQivMT-8" value="6" style="rounded=0;whiteSpace=wrap;html=1;fontFamily=Ubuntu;fontSource=https%3A%2F%2Ffonts.googleapis.com%2Fcss%3Ffamily%3DUbuntu;fontSize=17;" vertex="1" parent="yLzjmKvw4pbnI5d4b2Pk-1">
          <mxGeometry x="478.8" y="120" width="40" height="40" as="geometry" />
        </mxCell>
        <mxCell id="0qR9nPcdmzWhLlfQivMT-9" value="-3" style="rounded=0;whiteSpace=wrap;html=1;fontFamily=Ubuntu;fontSource=https%3A%2F%2Ffonts.googleapis.com%2Fcss%3Ffamily%3DUbuntu;fontSize=17;" vertex="1" parent="yLzjmKvw4pbnI5d4b2Pk-1">
          <mxGeometry x="518.8" y="120" width="40" height="40" as="geometry" />
        </mxCell>
        <mxCell id="h7YrK_vvsYupT_rILBup-0" value="number = -5" style="text;html=1;strokeColor=none;fillColor=none;align=center;verticalAlign=middle;whiteSpace=wrap;rounded=0;fontFamily=Ubuntu;fontSource=https%3A%2F%2Ffonts.googleapis.com%2Fcss%3Ffamily%3DUbuntu;fontSize=16;" vertex="1" parent="yLzjmKvw4pbnI5d4b2Pk-1">
          <mxGeometry x="337.15999999999997" y="220" width="110" height="30" as="geometry" />
        </mxCell>
        <mxCell id="h7YrK_vvsYupT_rILBup-1" value="" style="shape=stencil(7VjLbhsxDPwaXwmJ1POcpv8RIE5t1I0DJ339faka2qyo7BQ5FsjN2dWsRA45nGgnN8+Hu6f9jt3zy+X8df/zeP9y2MmnHfPx8bC/HF/0105ud3LzcL7sv1zO3x/vr38/3bWV7de384/2hV9XXCIODcTu9/WBo1j/Pvh8XX46Pq6W+0DCw/pIDqxn6Z/r670jydsAcVRkBATiCAC1v14AlUS2AaFQ8gNAYwhlGxALiRsAIuTDNiBlCmPQwVMEO+RIOY9ZVRrSNqAw1TGGWCmCLJVCcQSkQg7sUJnyCMiJHCCuTjEUIWYAyFTHLBUlzgNApTDWXtXqAkx758iNzOmm0cEt6lh9teCoKyW2gISiruTKCKjkUdRafdECIgJo9SULKCjo1Mt/BaiY6mBa7jXTbyMChTCdCehGY9ZbQAIF3urVWYCgI3EndsVcAV1dPaVkAYKo9lNeM2XU1cnqhmYaaZ92mDdZ8lQAINde/kvP5R7VljIZOW7SA4LObMUya58jsSwUjNBwr/i3AdEGnRKMIYllOjEUGn1dDcD3ntrawfRocpSAMqVAfmRa9RulVYMOzgIENJDmpEQLQDqjPEixADTaU+3tsj4SKj5vpU8BBRWfp5psWtFYbJUzplWJEzR4uVuFVWkwIE6PlM0OWl0IoH7GW0DCabWTOmC3oROKLUAQYJIZBTAq78XjrWKoqJZkIk6gJ0uLVVjxgHxoa1HTccoMUg2VStPTjiqYDwooEwDyEKxqNE+GeZC5RcHcVV9Zph2QO9FakgnA4EharXmSmQR2aP3gbZaQts7zQYnzgIf3A2RqUa1fpEvZ6pKmAalG8TatOiZRP5TQS22Zoppo0A/NrhtAxN7YW5lpZhr5+9Brc7EO2nGA6Q8z/WGm/ycz3Y5kshSgbrQdTM/V/h/q202qSTSA0Pfc8vdp8sbon3D12nZSq36DI7XvGTn2/cnWhLBDCxsg/Z5xfUGgCuj3irk9iZBp/Z6MpcEF9oMEGzQz1BmO/TZmabkMB6+frow8vgGq/e1CNFUwUHyvgiVFFMBx1ASzWY6MutoWk09K4OyTzHPHby038gUNg7P3h54YcOvspZI+gIk0LewogGLWyKJZ7sHX2V5YOWj9JwOJZT1QtjexiNVo57eDyvDOe95/Ltcfr1fKD8fT6XojvX5vr6D10fX6Wm7/AA==);lineShape=1;" vertex="1" parent="yLzjmKvw4pbnI5d4b2Pk-1">
          <mxGeometry x="343.5447626441328" y="162.54477145060287" width="39.852418479528524" height="71.55122287020947" as="geometry" />
        </mxCell>
        <mxCell id="h7YrK_vvsYupT_rILBup-2" value="" style="shape=stencil(rVbRbtswDPwavxKSKInSc9f9R4Gmi7EsKdJ0W/++NAxtomLfXgbkwXZ4EinenTjxw9vx6fUwBfd2u16+H37Nz7fjxF+mEObz8XCdb/o08ePEDy+X6+Hb9fJ+fl7fX5+WyOXpx+XnssLvFZco1wUU3Mf6oQgtr/r7usaf5nMX74XEW0Cg6PYB7Mk5A5BAPu8DYqQsBpASJZBS0h0sQJeoYIdUidkAOBD7fUAu5KMB+EIl7QO0xGwBiSrYQOJYApMwiM8kxSZEFTShOIo23lEG+ZQ4ru9aF7fjKwUe4j3IvzKxDPG1gnitN5t4JR2Kr+SSpQRFwAjv3MjS3Hi+t0GyMqjwgKpQDrZhylpUQaRkK/ChncE2QDtqK/BMJYKeZQoDILYv2wBP5X4HIEwRKvmuBpCSymDcQU8JFK06q1ZnharA+Gh5lykXEM8U7frKI6TLRGK7FiDvpDYr7HQA8i/cfKrTGeiAmrmM60OahnbcnU8gHafWz86HQD61tOPrfA6RujYKdz4KfHeJt+sXCv8zPhFbGWsBAYlM2vn9KTg3yu45NdsOxAqtWima7BFlTwFwKKfRukSFDUSQMsXhynewaxxHlambMaCdskas7pUoAgDL9TvYb4Uzgk+j/yoAKU2dauh0d0dsc6P5ebdDBinlcabQmgs61bsKBHbh/kxzu3Q3411zqq5pAm6ouxtTL3UPzseNQ1f1cHD0o/XqkIHyUSHa/EuB9W5OvkBo/56U9eHvmP0yn07rlN7/P47l+mkd6fnxEw==);lineShape=1;" vertex="1" parent="yLzjmKvw4pbnI5d4b2Pk-1">
          <mxGeometry x="378.01398280357284" y="201.90934866448163" width="14.499806936106097" height="28.066938307962687" as="geometry" />
        </mxCell>
      </root>
    </mxGraphModel>
  </diagram>
  <diagram name="Copy of Copy of Copy of Page-1" id="a6cO61I4GLNl9xYd4obX">
    <mxGraphModel dx="880" dy="486" grid="1" gridSize="10" guides="1" tooltips="1" connect="1" arrows="1" fold="1" page="1" pageScale="1" pageWidth="1100" pageHeight="850" math="0" shadow="0">
      <root>
        <mxCell id="Ns_MW9n720VkzDXB0_QC-0" />
        <mxCell id="Ns_MW9n720VkzDXB0_QC-1" parent="Ns_MW9n720VkzDXB0_QC-0" />
        <mxCell id="Ns_MW9n720VkzDXB0_QC-2" value="3" style="rounded=0;whiteSpace=wrap;html=1;fontFamily=Ubuntu;fontSource=https%3A%2F%2Ffonts.googleapis.com%2Fcss%3Ffamily%3DUbuntu;fontSize=17;fillColor=#d5e8d4;strokeColor=#82b366;" vertex="1" parent="Ns_MW9n720VkzDXB0_QC-1">
          <mxGeometry x="160" y="120" width="40" height="40" as="geometry" />
        </mxCell>
        <mxCell id="Ns_MW9n720VkzDXB0_QC-3" value="-2" style="rounded=0;whiteSpace=wrap;html=1;fontFamily=Ubuntu;fontSource=https%3A%2F%2Ffonts.googleapis.com%2Fcss%3Ffamily%3DUbuntu;fontSize=17;" vertex="1" parent="Ns_MW9n720VkzDXB0_QC-1">
          <mxGeometry x="200" y="120" width="40" height="40" as="geometry" />
        </mxCell>
        <mxCell id="Ns_MW9n720VkzDXB0_QC-4" value="-5" style="rounded=0;whiteSpace=wrap;html=1;fontFamily=Ubuntu;fontSource=https%3A%2F%2Ffonts.googleapis.com%2Fcss%3Ffamily%3DUbuntu;fontSize=17;" vertex="1" parent="Ns_MW9n720VkzDXB0_QC-1">
          <mxGeometry x="240" y="120" width="40" height="40" as="geometry" />
        </mxCell>
        <mxCell id="Ns_MW9n720VkzDXB0_QC-5" value="7" style="rounded=0;whiteSpace=wrap;html=1;fontFamily=Ubuntu;fontSource=https%3A%2F%2Ffonts.googleapis.com%2Fcss%3Ffamily%3DUbuntu;fontSize=17;" vertex="1" parent="Ns_MW9n720VkzDXB0_QC-1">
          <mxGeometry x="280" y="120" width="40" height="40" as="geometry" />
        </mxCell>
        <mxCell id="Ns_MW9n720VkzDXB0_QC-6" value="-5" style="rounded=0;whiteSpace=wrap;html=1;fontFamily=Ubuntu;fontSource=https%3A%2F%2Ffonts.googleapis.com%2Fcss%3Ffamily%3DUbuntu;fontSize=17;" vertex="1" parent="Ns_MW9n720VkzDXB0_QC-1">
          <mxGeometry x="320" y="120" width="40" height="40" as="geometry" />
        </mxCell>
        <mxCell id="Ns_MW9n720VkzDXB0_QC-7" value="4" style="rounded=0;whiteSpace=wrap;html=1;fontFamily=Ubuntu;fontSource=https%3A%2F%2Ffonts.googleapis.com%2Fcss%3Ffamily%3DUbuntu;fontSize=17;" vertex="1" parent="Ns_MW9n720VkzDXB0_QC-1">
          <mxGeometry x="360" y="120" width="40" height="40" as="geometry" />
        </mxCell>
        <mxCell id="Ns_MW9n720VkzDXB0_QC-8" value="2" style="rounded=0;whiteSpace=wrap;html=1;fontFamily=Ubuntu;fontSource=https%3A%2F%2Ffonts.googleapis.com%2Fcss%3Ffamily%3DUbuntu;fontSize=17;" vertex="1" parent="Ns_MW9n720VkzDXB0_QC-1">
          <mxGeometry x="400" y="120" width="40" height="40" as="geometry" />
        </mxCell>
        <mxCell id="Ns_MW9n720VkzDXB0_QC-9" value="4" style="rounded=0;whiteSpace=wrap;html=1;fontFamily=Ubuntu;fontSource=https%3A%2F%2Ffonts.googleapis.com%2Fcss%3Ffamily%3DUbuntu;fontSize=17;" vertex="1" parent="Ns_MW9n720VkzDXB0_QC-1">
          <mxGeometry x="440" y="120" width="40" height="40" as="geometry" />
        </mxCell>
        <mxCell id="Ns_MW9n720VkzDXB0_QC-10" value="6" style="rounded=0;whiteSpace=wrap;html=1;fontFamily=Ubuntu;fontSource=https%3A%2F%2Ffonts.googleapis.com%2Fcss%3Ffamily%3DUbuntu;fontSize=17;" vertex="1" parent="Ns_MW9n720VkzDXB0_QC-1">
          <mxGeometry x="480" y="120" width="40" height="40" as="geometry" />
        </mxCell>
        <mxCell id="Ns_MW9n720VkzDXB0_QC-11" value="-3" style="rounded=0;whiteSpace=wrap;html=1;fontFamily=Ubuntu;fontSource=https%3A%2F%2Ffonts.googleapis.com%2Fcss%3Ffamily%3DUbuntu;fontSize=17;" vertex="1" parent="Ns_MW9n720VkzDXB0_QC-1">
          <mxGeometry x="520" y="120" width="40" height="40" as="geometry" />
        </mxCell>
        <mxCell id="Ns_MW9n720VkzDXB0_QC-12" value="" style="endArrow=none;dashed=1;html=1;rounded=0;" edge="1" parent="Ns_MW9n720VkzDXB0_QC-1">
          <mxGeometry width="50" height="50" relative="1" as="geometry">
            <mxPoint x="357.79999999999995" y="470" as="sourcePoint" />
            <mxPoint x="357.79999999999995" y="80" as="targetPoint" />
          </mxGeometry>
        </mxCell>
        <mxCell id="Ns_MW9n720VkzDXB0_QC-13" value="SORTED" style="text;html=1;strokeColor=none;fillColor=none;align=center;verticalAlign=middle;whiteSpace=wrap;rounded=0;fontFamily=Ubuntu;fontSource=https%3A%2F%2Ffonts.googleapis.com%2Fcss%3Ffamily%3DUbuntu;fontSize=16;" vertex="1" parent="Ns_MW9n720VkzDXB0_QC-1">
          <mxGeometry x="244.15" y="60" width="60" height="30" as="geometry" />
        </mxCell>
        <mxCell id="Ns_MW9n720VkzDXB0_QC-14" value="UNSORTED" style="text;html=1;strokeColor=none;fillColor=none;align=center;verticalAlign=middle;whiteSpace=wrap;rounded=0;fontFamily=Ubuntu;fontSource=https%3A%2F%2Ffonts.googleapis.com%2Fcss%3Ffamily%3DUbuntu;fontSize=16;" vertex="1" parent="Ns_MW9n720VkzDXB0_QC-1">
          <mxGeometry x="398.8" y="60" width="90" height="30" as="geometry" />
        </mxCell>
        <mxCell id="Ns_MW9n720VkzDXB0_QC-15" value="-2" style="rounded=0;whiteSpace=wrap;html=1;fontFamily=Ubuntu;fontSource=https%3A%2F%2Ffonts.googleapis.com%2Fcss%3Ffamily%3DUbuntu;fontSize=17;fillColor=#d5e8d4;strokeColor=#82b366;" vertex="1" parent="Ns_MW9n720VkzDXB0_QC-1">
          <mxGeometry x="160" y="120" width="40" height="40" as="geometry" />
        </mxCell>
        <mxCell id="Ns_MW9n720VkzDXB0_QC-16" value="3" style="rounded=0;whiteSpace=wrap;html=1;fontFamily=Ubuntu;fontSource=https%3A%2F%2Ffonts.googleapis.com%2Fcss%3Ffamily%3DUbuntu;fontSize=17;fillColor=#d5e8d4;strokeColor=#82b366;" vertex="1" parent="Ns_MW9n720VkzDXB0_QC-1">
          <mxGeometry x="200" y="120" width="40" height="40" as="geometry" />
        </mxCell>
        <mxCell id="Ns_MW9n720VkzDXB0_QC-17" value="-5" style="rounded=0;whiteSpace=wrap;html=1;fontFamily=Ubuntu;fontSource=https%3A%2F%2Ffonts.googleapis.com%2Fcss%3Ffamily%3DUbuntu;fontSize=17;" vertex="1" parent="Ns_MW9n720VkzDXB0_QC-1">
          <mxGeometry x="240" y="120" width="40" height="40" as="geometry" />
        </mxCell>
        <mxCell id="Ns_MW9n720VkzDXB0_QC-18" value="7" style="rounded=0;whiteSpace=wrap;html=1;fontFamily=Ubuntu;fontSource=https%3A%2F%2Ffonts.googleapis.com%2Fcss%3Ffamily%3DUbuntu;fontSize=17;" vertex="1" parent="Ns_MW9n720VkzDXB0_QC-1">
          <mxGeometry x="280" y="120" width="40" height="40" as="geometry" />
        </mxCell>
        <mxCell id="Ns_MW9n720VkzDXB0_QC-19" value="-5" style="rounded=0;whiteSpace=wrap;html=1;fontFamily=Ubuntu;fontSource=https%3A%2F%2Ffonts.googleapis.com%2Fcss%3Ffamily%3DUbuntu;fontSize=17;" vertex="1" parent="Ns_MW9n720VkzDXB0_QC-1">
          <mxGeometry x="320" y="120" width="40" height="40" as="geometry" />
        </mxCell>
        <mxCell id="Ns_MW9n720VkzDXB0_QC-20" value="4" style="rounded=0;whiteSpace=wrap;html=1;fontFamily=Ubuntu;fontSource=https%3A%2F%2Ffonts.googleapis.com%2Fcss%3Ffamily%3DUbuntu;fontSize=17;" vertex="1" parent="Ns_MW9n720VkzDXB0_QC-1">
          <mxGeometry x="360" y="120" width="40" height="40" as="geometry" />
        </mxCell>
        <mxCell id="Ns_MW9n720VkzDXB0_QC-21" value="2" style="rounded=0;whiteSpace=wrap;html=1;fontFamily=Ubuntu;fontSource=https%3A%2F%2Ffonts.googleapis.com%2Fcss%3Ffamily%3DUbuntu;fontSize=17;" vertex="1" parent="Ns_MW9n720VkzDXB0_QC-1">
          <mxGeometry x="400" y="120" width="40" height="40" as="geometry" />
        </mxCell>
        <mxCell id="Ns_MW9n720VkzDXB0_QC-22" value="4" style="rounded=0;whiteSpace=wrap;html=1;fontFamily=Ubuntu;fontSource=https%3A%2F%2Ffonts.googleapis.com%2Fcss%3Ffamily%3DUbuntu;fontSize=17;" vertex="1" parent="Ns_MW9n720VkzDXB0_QC-1">
          <mxGeometry x="440" y="120" width="40" height="40" as="geometry" />
        </mxCell>
        <mxCell id="Ns_MW9n720VkzDXB0_QC-23" value="6" style="rounded=0;whiteSpace=wrap;html=1;fontFamily=Ubuntu;fontSource=https%3A%2F%2Ffonts.googleapis.com%2Fcss%3Ffamily%3DUbuntu;fontSize=17;" vertex="1" parent="Ns_MW9n720VkzDXB0_QC-1">
          <mxGeometry x="480" y="120" width="40" height="40" as="geometry" />
        </mxCell>
        <mxCell id="Ns_MW9n720VkzDXB0_QC-24" value="-3" style="rounded=0;whiteSpace=wrap;html=1;fontFamily=Ubuntu;fontSource=https%3A%2F%2Ffonts.googleapis.com%2Fcss%3Ffamily%3DUbuntu;fontSize=17;" vertex="1" parent="Ns_MW9n720VkzDXB0_QC-1">
          <mxGeometry x="520" y="120" width="40" height="40" as="geometry" />
        </mxCell>
        <mxCell id="Ns_MW9n720VkzDXB0_QC-25" value="-5" style="rounded=0;whiteSpace=wrap;html=1;fontFamily=Ubuntu;fontSource=https%3A%2F%2Ffonts.googleapis.com%2Fcss%3Ffamily%3DUbuntu;fontSize=17;fillColor=#d5e8d4;strokeColor=#82b366;" vertex="1" parent="Ns_MW9n720VkzDXB0_QC-1">
          <mxGeometry x="158.8" y="120" width="40" height="40" as="geometry" />
        </mxCell>
        <mxCell id="Ns_MW9n720VkzDXB0_QC-26" value="-5" style="rounded=0;whiteSpace=wrap;html=1;fontFamily=Ubuntu;fontSource=https%3A%2F%2Ffonts.googleapis.com%2Fcss%3Ffamily%3DUbuntu;fontSize=17;fillColor=#d5e8d4;strokeColor=#82b366;" vertex="1" parent="Ns_MW9n720VkzDXB0_QC-1">
          <mxGeometry x="198.8" y="120" width="40" height="40" as="geometry" />
        </mxCell>
        <mxCell id="Ns_MW9n720VkzDXB0_QC-27" value="-2" style="rounded=0;whiteSpace=wrap;html=1;fontFamily=Ubuntu;fontSource=https%3A%2F%2Ffonts.googleapis.com%2Fcss%3Ffamily%3DUbuntu;fontSize=17;fillColor=#d5e8d4;strokeColor=#82b366;" vertex="1" parent="Ns_MW9n720VkzDXB0_QC-1">
          <mxGeometry x="238.8" y="120" width="40" height="40" as="geometry" />
        </mxCell>
        <mxCell id="Ns_MW9n720VkzDXB0_QC-28" value="3" style="rounded=0;whiteSpace=wrap;html=1;fontFamily=Ubuntu;fontSource=https%3A%2F%2Ffonts.googleapis.com%2Fcss%3Ffamily%3DUbuntu;fontSize=17;fillColor=#dae8fc;strokeColor=#6c8ebf;" vertex="1" parent="Ns_MW9n720VkzDXB0_QC-1">
          <mxGeometry x="278.8" y="120" width="40" height="40" as="geometry" />
        </mxCell>
        <mxCell id="Ns_MW9n720VkzDXB0_QC-29" value="7" style="rounded=0;whiteSpace=wrap;html=1;fontFamily=Ubuntu;fontSource=https%3A%2F%2Ffonts.googleapis.com%2Fcss%3Ffamily%3DUbuntu;fontSize=17;fillColor=#d5e8d4;strokeColor=#82b366;" vertex="1" parent="Ns_MW9n720VkzDXB0_QC-1">
          <mxGeometry x="318.8" y="120" width="40" height="40" as="geometry" />
        </mxCell>
        <mxCell id="Ns_MW9n720VkzDXB0_QC-30" value="4" style="rounded=0;whiteSpace=wrap;html=1;fontFamily=Ubuntu;fontSource=https%3A%2F%2Ffonts.googleapis.com%2Fcss%3Ffamily%3DUbuntu;fontSize=17;" vertex="1" parent="Ns_MW9n720VkzDXB0_QC-1">
          <mxGeometry x="358.8" y="120" width="40" height="40" as="geometry" />
        </mxCell>
        <mxCell id="Ns_MW9n720VkzDXB0_QC-31" value="2" style="rounded=0;whiteSpace=wrap;html=1;fontFamily=Ubuntu;fontSource=https%3A%2F%2Ffonts.googleapis.com%2Fcss%3Ffamily%3DUbuntu;fontSize=17;" vertex="1" parent="Ns_MW9n720VkzDXB0_QC-1">
          <mxGeometry x="398.8" y="120" width="40" height="40" as="geometry" />
        </mxCell>
        <mxCell id="Ns_MW9n720VkzDXB0_QC-32" value="4" style="rounded=0;whiteSpace=wrap;html=1;fontFamily=Ubuntu;fontSource=https%3A%2F%2Ffonts.googleapis.com%2Fcss%3Ffamily%3DUbuntu;fontSize=17;" vertex="1" parent="Ns_MW9n720VkzDXB0_QC-1">
          <mxGeometry x="438.8" y="120" width="40" height="40" as="geometry" />
        </mxCell>
        <mxCell id="Ns_MW9n720VkzDXB0_QC-33" value="6" style="rounded=0;whiteSpace=wrap;html=1;fontFamily=Ubuntu;fontSource=https%3A%2F%2Ffonts.googleapis.com%2Fcss%3Ffamily%3DUbuntu;fontSize=17;" vertex="1" parent="Ns_MW9n720VkzDXB0_QC-1">
          <mxGeometry x="478.8" y="120" width="40" height="40" as="geometry" />
        </mxCell>
        <mxCell id="Ns_MW9n720VkzDXB0_QC-34" value="-3" style="rounded=0;whiteSpace=wrap;html=1;fontFamily=Ubuntu;fontSource=https%3A%2F%2Ffonts.googleapis.com%2Fcss%3Ffamily%3DUbuntu;fontSize=17;" vertex="1" parent="Ns_MW9n720VkzDXB0_QC-1">
          <mxGeometry x="518.8" y="120" width="40" height="40" as="geometry" />
        </mxCell>
        <mxCell id="dLTXt7t8GcT-C6WzZfrr-0" value="" style="shape=stencil(lVfZctswDPwavWJIgOdzmv5HZuLUnrp2xnF6/H2haqiKkLRt3mQZKwKLxcFBHt6OT6+Hgd3b/Xb9evhxer4fB/k0MJ8ux8PtdNenQR4HeXi53g5fbtf3y/P0+/VptByfvl2/j1/4OeEC1TyC2P2aXjiK6c+Lz5P5+XRZmHuhUjr7RIn37fVzLnb23lGNAJAocg+IVGQfIELRdQD2FMo+IDgbAmdKGQAKcc+RnpnrPiBGCtIDKlXAUmKSnqWQyIMYUiXnO0BkCiCGHMn3McTSiN4EFEe5z0MKxB4AYnNgBlQK6IRqWcqBHIihckvTDNAYQB5qJO5PKEwZnVAohR5Qm7q2y8Gpvnv11UQB+VSp9KmuGVacAriXq3oZAwxC+iD0EwISoQ54sYCCAJFy79KCh21EaFJYHgGqukoT2zIIBGBbpCNNoNFUT6muEoHE4Rvti1QjcSigGF61RpBLvDohUMQsRaMNwbSGlfqkVeE2IBGzBQhiKa9iEEpI31pzxQbNuCCit7R60JkUUE3QqSn+fwEZ9r7RJcNSaa1nN2gjPu3oqG3MTWIBSAigiVt1gQpGyiiNvAKgLiCt+S4AUK3cCnLBElSrFlCweagoD1slWpCWPgxwq5r2eMoVOxZ1UKJMl2T3meIxQFqa5rGYKIMYdLQblzLDE/K8jMyjPTWxbAOcdSl58sAl3S0MQHcoBNDthXvx6ZZWgUtR09TTGrj1wu2tL9jOJwkC9G9T06JiAWrlamecbuNo7jI3Tua5W9us315PYhPzDAhwN9bl3PdBj2/QAmTX+0AeKMnZLiZwH3PEzpgzNHe987rtAf5Xq5vSC8h0K/Lb8N0xD9WYo+VWK6b/uqMEWqO3rdSRgDSxXYQ1duA72/mHtzuxE1zNQe0GEhsqo0L82A31n+b68Pcy/HI6n6e79PJ/e3nWV9PFWx5/Aw==);lineShape=1;" vertex="1" parent="Ns_MW9n720VkzDXB0_QC-1">
          <mxGeometry x="387.5392111995561" y="158.53222500144545" width="48.469302523505576" height="61.77825866187743" as="geometry" />
        </mxCell>
        <mxCell id="dLTXt7t8GcT-C6WzZfrr-1" value="" style="shape=stencil(rVfLbhsxDPyavRKSqAd1TtP/CBCnNurageP08felu9DaZL0TFOhtveZIIjkz1E788LZ9et1MKbydT8evmx+75/N24k9TSrvDdnPanfVp4seJH16Op82X0/H98Dz/fn26RF6evh2/X1b4OeM6Vb6AUvg1vwjU858Xn+fw/e5wEx6FejTxQizr8ZxIsolPDDfgTtIMQJdAgNwoWkBmCmEdUDJxMoDClHkdUKsHVKGc1gGNqbodliXuAzRpW1WOsKxSKIgBxEgF7CCVigU04gbihaqrKmVQ1B4p2pS1a+A8nf36TBGtXylUd56O4oWC5Z1QLCC+j/SWgiYqYIMYwmDZgmiUO9yi2RZojWqEObRiAdo0BGgUrJiVRhEBMonNgRkfKVHqFpCpAHWKJl39DgJ2EC2i+BxQI1QKtfsqCTqSnthST7mXkHYyJcsldcEIDEMBzQHUkgA1VJ3Bu2pFKbQhrsVgKIED9UDJFXWktNZm8WqWCuILseVRhgVSomZboEodxXdP7KhjCstZLClioYbF2d2cCtjAOkWn5jKK9p8AyiJLirzIda3LxWqtqtYQT4N3JJVrBTvoYCvWkToe/7WMv6+NC3g6J09VJTvaIhfv3E31j64k4q88tY063AdEL+eyTJe7AG2sGw25w6TVHqrTZ4YGoMPYUkM9LwKBpiGvG+6h60L05/nAIsNfkyrApgV/Z9PZGWG8n7UM5RyGHd74BbqxhWFv19tRAuWMJDbdDCe/Xm2ctwyOrzS32tWX6t7XmPdeLDAdHd2HI2v/t++DD8P14fop8rLb7+cvmdv//aeLvpo/e/jxNw==);lineShape=1;" vertex="1" parent="Ns_MW9n720VkzDXB0_QC-1">
          <mxGeometry x="412.8235755387202" y="206.834697198752" width="31.00083958644359" height="15.414672445545762" as="geometry" />
        </mxCell>
        <mxCell id="40rF0TkgfBOfs-EIoKQl-0" value="number = 4" style="text;html=1;strokeColor=none;fillColor=none;align=center;verticalAlign=middle;whiteSpace=wrap;rounded=0;fontFamily=Ubuntu;fontSource=https%3A%2F%2Ffonts.googleapis.com%2Fcss%3Ffamily%3DUbuntu;fontSize=16;" vertex="1" parent="Ns_MW9n720VkzDXB0_QC-1">
          <mxGeometry x="398.79999999999995" y="230" width="110" height="30" as="geometry" />
        </mxCell>
      </root>
    </mxGraphModel>
  </diagram>
</mxfile>
